<svg xmlns="http://www.w3.org/2000/svg" width="980" height="620" viewBox="0 0 980 620">
<rect width="100%" height="100%" fill="white"/>
<style>text{font-family:Arial,Helvetica,sans-serif;fill:#222}.title{font-size:26px;font-weight:700}.axis{font-size:16px}.tick{font-size:13px;fill:#444}.legend{font-size:15px}.grid{stroke:#e6e6e6;stroke-width:1}.axisline{stroke:#333;stroke-width:1.5}</style>
<text class="title" x="490.0" y="36" text-anchor="middle">Faces: Training Time vs Training Fraction</text>
<line class="grid" x1="92" y1="525.00" x2="760" y2="525.00"/>
<text class="tick" x="80" y="529.00" text-anchor="end">0</text>
<line class="grid" x1="92" y1="434.00" x2="760" y2="434.00"/>
<text class="tick" x="80" y="438.00" text-anchor="end">2</text>
<line class="grid" x1="92" y1="343.00" x2="760" y2="343.00"/>
<text class="tick" x="80" y="347.00" text-anchor="end">4</text>
<line class="grid" x1="92" y1="252.00" x2="760" y2="252.00"/>
<text class="tick" x="80" y="256.00" text-anchor="end">6</text>
<line class="grid" x1="92" y1="161.00" x2="760" y2="161.00"/>
<text class="tick" x="80" y="165.00" text-anchor="end">8</text>
<line class="grid" x1="92" y1="70.00" x2="760" y2="70.00"/>
<text class="tick" x="80" y="74.00" text-anchor="end">10</text>
<line class="grid" x1="92.00" y1="70" x2="92.00" y2="525"/>
<text class="tick" x="92.00" y="553" text-anchor="middle">10</text>
<line class="grid" x1="166.22" y1="70" x2="166.22" y2="525"/>
<text class="tick" x="166.22" y="553" text-anchor="middle">20</text>
<line class="grid" x1="240.44" y1="70" x2="240.44" y2="525"/>
<text class="tick" x="240.44" y="553" text-anchor="middle">30</text>
<line class="grid" x1="314.67" y1="70" x2="314.67" y2="525"/>
<text class="tick" x="314.67" y="553" text-anchor="middle">40</text>
<line class="grid" x1="388.89" y1="70" x2="388.89" y2="525"/>
<text class="tick" x="388.89" y="553" text-anchor="middle">50</text>
<line class="grid" x1="463.11" y1="70" x2="463.11" y2="525"/>
<text class="tick" x="463.11" y="553" text-anchor="middle">60</text>
<line class="grid" x1="537.33" y1="70" x2="537.33" y2="525"/>
<text class="tick" x="537.33" y="553" text-anchor="middle">70</text>
<line class="grid" x1="611.56" y1="70" x2="611.56" y2="525"/>
<text class="tick" x="611.56" y="553" text-anchor="middle">80</text>
<line class="grid" x1="685.78" y1="70" x2="685.78" y2="525"/>
<text class="tick" x="685.78" y="553" text-anchor="middle">90</text>
<line class="grid" x1="760.00" y1="70" x2="760.00" y2="525"/>
<text class="tick" x="760.00" y="553" text-anchor="middle">100</text>
<line class="axisline" x1="92" y1="525" x2="760" y2="525"/>
<line class="axisline" x1="92" y1="70" x2="92" y2="525"/>
<text class="axis" x="426.0" y="590" text-anchor="middle">Training Data Used (%)</text>
<text class="axis" transform="translate(24 297.5) rotate(-90)" text-anchor="middle">Mean Training Time (seconds)</text>
<polyline points="92.00,524.83 166.22,524.85 240.44,524.86 314.67,524.73 388.89,524.71 463.11,524.72 537.33,524.69 611.56,524.66 685.78,524.42 760.00,524.57" fill="none" stroke="#1f77b4" stroke-width="3" stroke-linejoin="round" stroke-linecap="round"/>
<circle cx="92.00" cy="524.83" r="4.5" fill="white" stroke="#1f77b4" stroke-width="2.5"/>
<circle cx="166.22" cy="524.85" r="4.5" fill="white" stroke="#1f77b4" stroke-width="2.5"/>
<circle cx="240.44" cy="524.86" r="4.5" fill="white" stroke="#1f77b4" stroke-width="2.5"/>
<circle cx="314.67" cy="524.73" r="4.5" fill="white" stroke="#1f77b4" stroke-width="2.5"/>
<circle cx="388.89" cy="524.71" r="4.5" fill="white" stroke="#1f77b4" stroke-width="2.5"/>
<circle cx="463.11" cy="524.72" r="4.5" fill="white" stroke="#1f77b4" stroke-width="2.5"/>
<circle cx="537.33" cy="524.69" r="4.5" fill="white" stroke="#1f77b4" stroke-width="2.5"/>
<circle cx="611.56" cy="524.66" r="4.5" fill="white" stroke="#1f77b4" stroke-width="2.5"/>
<circle cx="685.78" cy="524.42" r="4.5" fill="white" stroke="#1f77b4" stroke-width="2.5"/>
<circle cx="760.00" cy="524.57" r="4.5" fill="white" stroke="#1f77b4" stroke-width="2.5"/>
<polyline points="92.00,420.11 166.22,478.53 240.44,416.97 314.67,400.62 388.89,376.05 463.11,352.35 537.33,255.70 611.56,232.79 685.78,149.92 760.00,166.86" fill="none" stroke="#2ca02c" stroke-width="3" stroke-linejoin="round" stroke-linecap="round"/>
<circle cx="92.00" cy="420.11" r="4.5" fill="white" stroke="#2ca02c" stroke-width="2.5"/>
<circle cx="166.22" cy="478.53" r="4.5" fill="white" stroke="#2ca02c" stroke-width="2.5"/>
<circle cx="240.44" cy="416.97" r="4.5" fill="white" stroke="#2ca02c" stroke-width="2.5"/>
<circle cx="314.67" cy="400.62" r="4.5" fill="white" stroke="#2ca02c" stroke-width="2.5"/>
<circle cx="388.89" cy="376.05" r="4.5" fill="white" stroke="#2ca02c" stroke-width="2.5"/>
<circle cx="463.11" cy="352.35" r="4.5" fill="white" stroke="#2ca02c" stroke-width="2.5"/>
<circle cx="537.33" cy="255.70" r="4.5" fill="white" stroke="#2ca02c" stroke-width="2.5"/>
<circle cx="611.56" cy="232.79" r="4.5" fill="white" stroke="#2ca02c" stroke-width="2.5"/>
<circle cx="685.78" cy="149.92" r="4.5" fill="white" stroke="#2ca02c" stroke-width="2.5"/>
<circle cx="760.00" cy="166.86" r="4.5" fill="white" stroke="#2ca02c" stroke-width="2.5"/>
<polyline points="92.00,517.76 166.22,516.85 240.44,513.66 314.67,511.39 388.89,505.91 463.11,502.09 537.33,500.16 611.56,494.59 685.78,493.44 760.00,482.76" fill="none" stroke="#d62728" stroke-width="3" stroke-linejoin="round" stroke-linecap="round"/>
<circle cx="92.00" cy="517.76" r="4.5" fill="white" stroke="#d62728" stroke-width="2.5"/>
<circle cx="166.22" cy="516.85" r="4.5" fill="white" stroke="#d62728" stroke-width="2.5"/>
<circle cx="240.44" cy="513.66" r="4.5" fill="white" stroke="#d62728" stroke-width="2.5"/>
<circle cx="314.67" cy="511.39" r="4.5" fill="white" stroke="#d62728" stroke-width="2.5"/>
<circle cx="388.89" cy="505.91" r="4.5" fill="white" stroke="#d62728" stroke-width="2.5"/>
<circle cx="463.11" cy="502.09" r="4.5" fill="white" stroke="#d62728" stroke-width="2.5"/>
<circle cx="537.33" cy="500.16" r="4.5" fill="white" stroke="#d62728" stroke-width="2.5"/>
<circle cx="611.56" cy="494.59" r="4.5" fill="white" stroke="#d62728" stroke-width="2.5"/>
<circle cx="685.78" cy="493.44" r="4.5" fill="white" stroke="#d62728" stroke-width="2.5"/>
<circle cx="760.00" cy="482.76" r="4.5" fill="white" stroke="#d62728" stroke-width="2.5"/>
<line x1="798" y1="88" x2="832" y2="88" stroke="#1f77b4" stroke-width="3"/>
<circle cx="815" cy="88" r="4" fill="white" stroke="#1f77b4" stroke-width="2"/>
<text class="legend" x="844" y="93">Perceptron</text>
<line x1="798" y1="118" x2="832" y2="118" stroke="#2ca02c" stroke-width="3"/>
<circle cx="815" cy="118" r="4" fill="white" stroke="#2ca02c" stroke-width="2"/>
<text class="legend" x="844" y="123">Scratch NN</text>
<line x1="798" y1="148" x2="832" y2="148" stroke="#d62728" stroke-width="3"/>
<circle cx="815" cy="148" r="4" fill="white" stroke="#d62728" stroke-width="2"/>
<text class="legend" x="844" y="153">PyTorch NN</text>
</svg>